<svg height="126pt" preserveAspectRatio="xMidYMid meet" viewBox="0 0 114 126" width="114pt" xmlns="http://www.w3.org/2000/svg"><path d="m354 1229c-17-17-38-29-54-29-19 0-47-22-109-84-78-79-83-86-79-120 3-29-2-42-30-73-25-29-32-45-30-70 2-24-5-41-25-64-27-31-27-32-27-176 0-124 4-159 26-246 15-56 35-111 45-123 11-11 19-31 19-43 0-16 21-44 60-82 52-52 64-59 98-59 24 0 49-8 65-20 21-17 40-20 116-20 91 0 92 0 127 35 19 19 37 35 41 35 3 0 21-18 40-40 34-39 36-40 97-40 49 0 68 5 86 20 15 13 37 20 64 20 37 0 48 6 99 58 36 37 58 68 59 83 1 13 9 33 19 44 26 30 71 208 73 296 3 73 2 77-26 95-34 23-35 29-3 50 30 20 31 38 5 99-11 26-20 64-20 84 0 27-7 44-25 61s-25 34-25 61c0 33-9 46-90 128-71 72-95 91-118 91-18 0-38 10-55 28-25 26-33 28-97 27-60-1-72-4-92-26-13-13-31-30-41-38-17-13-21-12-95 50-28 23-69 18-98-12z" transform="matrix(.1 0 0 -.1 0 126)"/></svg>